HIERARCHY
ROOT Hips
{
	OFFSET -0.001795 -0.223333 0.028219
	CHANNELS 6 Xposition Yposition Zposition Zrotation Yrotation Xrotation 
	JOINT LeftUpLeg
	{
		OFFSET 0.069520 -0.091406 -0.006815
		CHANNELS 3 Zrotation Yrotation Xrotation
		JOINT LeftLeg
		{
			OFFSET 0.034277 -0.375199 -0.004496
			CHANNELS 3 Zrotation Yrotation Xrotation
			JOINT LeftFoot
			{
				OFFSET -0.013596 -0.397961 -0.043693
				CHANNELS 3 Zrotation Yrotation Xrotation
				JOINT LeftToe
				{
					OFFSET 0.026358 -0.055791 0.119288
					CHANNELS 3 Zrotation Yrotation Xrotation
					End Site
					{
						OFFSET 0.000000 0.000000 0.000000
					}
				}
			}
		}
	}
	JOINT RightUpLeg
	{
		OFFSET -0.067670 -0.090522 -0.004320
		CHANNELS 3 Zrotation Yrotation Xrotation
		JOINT RightLeg
		{
			OFFSET -0.038290 -0.382569 -0.008850
			CHANNELS 3 Zrotation Yrotation Xrotation
			JOINT RightFoot
			{
				OFFSET 0.015774 -0.398415 -0.042312
				CHANNELS 3 Zrotation Yrotation Xrotation
				JOINT RightToe
				{
					OFFSET -0.025372 -0.048144 0.123348
					CHANNELS 3 Zrotation Yrotation Xrotation
					End Site
					{
						OFFSET 0.000000 0.000000 0.000000
					}
				}
			}
		}
	}
	JOINT Spine
	{
		OFFSET -0.002533 0.108963 -0.026696
		CHANNELS 3 Zrotation Yrotation Xrotation
		JOINT Spine1
		{
			OFFSET 0.005487 0.135180 0.001092
			CHANNELS 3 Zrotation Yrotation Xrotation
			JOINT Spine2
			{
				OFFSET 0.001457 0.052922 0.025425
				CHANNELS 3 Zrotation Yrotation Xrotation
				JOINT Neck
				{
					OFFSET -0.002778 0.213870 -0.042857
					CHANNELS 3 Zrotation Yrotation Xrotation
					JOINT Head
					{
						OFFSET 0.005152 0.064970 0.051349
						CHANNELS 3 Zrotation Yrotation Xrotation
						End Site
						{
							OFFSET 0.000000 0.000000 0.000000
						}
					}
				}
				JOINT LeftShoulder
				{
					OFFSET 0.078845 0.121749 -0.034090
					CHANNELS 3 Zrotation Yrotation Xrotation
					JOINT LeftArm
					{
						OFFSET 0.090977 0.030469 -0.008868
						CHANNELS 3 Zrotation Yrotation Xrotation
						JOINT LeftForeArm
						{
							OFFSET 0.259612 -0.012772 -0.027456
							CHANNELS 3 Zrotation Yrotation Xrotation
							JOINT LeftHand
							{
								OFFSET 0.249234 0.008986 -0.001171
								CHANNELS 3 Zrotation Yrotation Xrotation
								End Site
								{
									OFFSET 0.000000 0.000000 0.000000
								}
							}
						}
					}
				}
				JOINT RightShoulder
				{
					OFFSET -0.081759 0.118833 -0.038615
					CHANNELS 3 Zrotation Yrotation Xrotation
					JOINT RightArm
					{
						OFFSET -0.096012 0.032551 -0.009143
						CHANNELS 3 Zrotation Yrotation Xrotation
						JOINT RightForeArm
						{
							OFFSET -0.253742 -0.013329 -0.021401
							CHANNELS 3 Zrotation Yrotation Xrotation
							JOINT RightHand
							{
								OFFSET -0.255298 0.007772 -0.005559
								CHANNELS 3 Zrotation Yrotation Xrotation
								End Site
								{
									OFFSET 0.000000 0.000000 0.000000
								}
							}
						}
					}
				}
			}
		}
	}
}
MOTION
Frames: 16
Frame Time: 0.050000
0.293601 0.797943 -0.531744 4.887048 -52.757754 2.270327 -2.310585 3.563242 -37.270475 30.795505 -3.738435 63.982579 -11.724675 -34.215714 -14.877186 0.000000 0.000000 0.000000 -17.208101 9.411649 -46.920738 34.382093 -2.876834 63.916583 -20.848757 -44.928646 11.646681 0.000000 0.000000 0.000000 7.792339 3.942461 40.735724 -0.301156 0.396395 -30.973658 -0.537421 -12.204313 24.951271 -8.256994 1.153036 -45.287757 0.000000 0.000000 0.000000 -19.019652 -2.127418 9.171478 -59.759123 -43.433615 16.263500 152.969063 -36.704970 -69.755598 0.000000 0.000000 0.000000 5.259517 8.880573 -1.281772 62.301065 44.207936 9.969863 -161.688609 39.200038 -142.708449 0.000000 0.000000 0.000000 
0.315899 0.792987 -0.540615 6.122452 -52.172560 1.296632 -3.613673 3.391263 -38.862939 29.687663 -3.671053 62.664695 -11.550058 -34.373606 -16.038093 0.000000 0.000000 0.000000 -17.847202 9.741320 -48.587022 33.538972 -2.878870 64.380657 -23.679072 -48.486333 13.168587 0.000000 0.000000 0.000000 7.948254 4.364062 42.409001 -1.063701 0.566022 -31.078256 -1.383504 -13.827649 25.499105 -8.847037 1.514005 -47.383127 0.000000 0.000000 0.000000 -17.929027 -3.729586 9.935510 -60.111442 -44.957936 17.745135 153.214580 -36.214522 -67.854936 0.000000 0.000000 0.000000 6.995408 9.373427 -2.230222 62.182764 40.545100 8.909580 -162.021893 39.089435 -144.770446 0.000000 0.000000 0.000000 
0.334287 0.799792 -0.548998 5.933861 -51.867227 2.718657 -4.534349 3.893147 -42.139256 29.799385 -4.789457 61.022786 -15.728350 -37.035213 -9.859156 0.000000 0.000000 0.000000 -18.928617 9.835978 -49.806401 33.346784 -3.214232 62.822253 -22.083068 -47.733200 9.946579 0.000000 0.000000 0.000000 8.270234 4.193552 42.491168 -1.720774 0.696964 -31.180649 -2.258664 -15.615525 25.097823 -10.302166 1.878864 -47.595358 0.000000 0.000000 0.000000 -16.480458 -2.874240 9.155991 -60.762111 -45.943646 19.522924 152.587902 -36.602491 -66.238198 0.000000 0.000000 0.000000 7.683574 10.002850 -2.784195 62.634029 36.874363 7.528378 -160.365457 40.191928 -144.167501 0.000000 0.000000 0.000000 
0.343925 0.820055 -0.555547 6.087585 -51.520721 3.972276 -3.708814 4.572837 -43.282006 25.528124 -3.024232 58.553150 -17.993956 -34.563611 -3.345418 0.000000 0.000000 0.000000 -20.579273 9.132743 -48.832022 32.685062 -2.890491 58.368384 -18.682658 -43.459228 6.828150 0.000000 0.000000 0.000000 6.386221 4.262512 40.727152 -1.728130 0.621862 -30.626196 -0.985990 -15.940178 25.236336 -12.353066 2.561178 -47.592461 0.000000 0.000000 0.000000 -16.758105 -1.702642 8.851183 -63.045229 -47.398695 21.950115 151.993236 -37.766082 -66.236539 0.000000 0.000000 0.000000 5.422948 10.191429 -1.674079 64.137203 35.063311 5.753608 -159.806500 41.117844 -145.402545 0.000000 0.000000 0.000000 
0.347241 0.844604 -0.561012 6.756651 -50.739579 4.440444 -3.249592 5.048119 -44.772569 22.169486 -2.017724 56.552426 -22.649161 -31.735675 9.283326 0.000000 0.000000 0.000000 -21.343669 8.238558 -46.747978 32.819722 -2.910613 54.893609 -17.041626 -40.984772 4.366756 0.000000 0.000000 0.000000 4.613188 3.708096 37.137991 1.325329 -0.022599 -29.123232 -1.946822 -12.597185 23.761320 -12.960649 2.891760 -43.173600 0.000000 0.000000 0.000000 -19.480882 -1.075547 9.084133 -60.751570 -45.285338 17.864128 156.028741 -42.284587 -81.944270 0.000000 0.000000 0.000000 6.791794 9.973444 -1.941625 63.400600 31.756462 5.084869 -159.888320 43.165347 -147.504533 0.000000 0.000000 0.000000 
0.349273 0.857909 -0.566174 7.444818 -51.769340 3.844700 -1.030692 6.590239 -45.253648 19.389462 -0.045557 58.343450 -18.632113 -27.319896 7.403194 0.000000 0.000000 0.000000 -20.968996 8.117407 -45.389016 35.268469 -3.456638 54.931392 -18.364550 -36.894319 28.499645 0.000000 0.000000 0.000000 3.084074 4.320682 36.888512 3.262875 -0.196430 -29.735477 -3.882317 -10.876133 24.358142 -10.055532 1.735443 -43.993845 0.000000 0.000000 0.000000 -18.529371 0.968243 7.031110 -63.029159 -43.790258 18.488132 157.426954 -45.106634 -88.969088 0.000000 0.000000 0.000000 4.419382 8.226351 -1.073403 66.366414 32.881842 4.587619 -160.960245 44.422902 -149.299308 0.000000 0.000000 0.000000 
0.353696 0.852892 -0.571618 9.071326 -48.320764 2.223156 -1.092167 6.345861 -47.226308 19.817053 -1.432549 60.858535 -16.721401 -24.077659 8.794137 0.000000 0.000000 0.000000 -21.359858 6.565499 -41.663562 34.820047 -3.786290 53.427326 -17.277430 -32.953223 41.682307 0.000000 0.000000 0.000000 6.478462 2.886483 37.283787 -2.701883 0.670125 -28.730700 -1.003755 -13.556909 21.673542 -9.259570 1.274779 -39.743216 0.000000 0.000000 0.000000 -21.497543 -1.262106 9.616293 -60.707590 -43.791361 16.558355 156.758292 -43.704762 -87.886545 0.000000 0.000000 0.000000 0.859718 6.378839 0.148987 67.677849 35.229972 4.585989 -163.281688 43.575792 -152.626156 0.000000 0.000000 0.000000 
0.360252 0.830894 -0.576497 9.673588 -45.675656 -0.054318 -0.697940 5.398962 -45.532702 19.110958 -1.375820 59.817148 -13.602900 -21.049983 6.268370 0.000000 0.000000 0.000000 -19.745565 5.530399 -37.691339 34.919189 -3.958579 54.530249 -25.059886 -43.104263 29.478128 0.000000 0.000000 0.000000 7.441579 2.476507 38.138603 -1.663867 0.668482 -30.613539 -3.188541 -12.389143 23.995200 -9.349592 1.477556 -39.787017 0.000000 0.000000 0.000000 -23.556429 -2.908677 10.954785 -60.403841 -44.129145 15.367949 156.313442 -44.282836 -88.565090 0.000000 0.000000 0.000000 1.375215 8.393030 0.731455 64.718873 36.637899 5.742401 -158.504421 41.088708 -138.737707 0.000000 0.000000 0.000000 
0.370744 0.808367 -0.580630 9.817618 -45.697956 -1.763691 0.235929 5.350073 -43.463907 17.851768 -0.215752 58.298650 -10.625645 -20.146062 -0.951986 0.000000 0.000000 0.000000 -18.615020 5.755887 -38.036281 34.088336 -3.432505 56.710059 -33.038098 -49.690542 33.345742 0.000000 0.000000 0.000000 8.513126 2.613659 39.915746 -3.189920 0.963646 -31.353636 -3.913893 -11.538390 25.653891 -6.274949 0.072482 -37.864935 0.000000 0.000000 0.000000 -24.452277 -3.842529 11.642610 -61.138866 -45.055694 15.790096 148.655098 -43.887472 -75.905016 0.000000 0.000000 0.000000 2.028331 8.686025 0.665674 65.134695 40.011708 7.678514 -156.508303 42.060715 -134.347045 0.000000 0.000000 0.000000 
0.385118 0.794436 -0.583941 10.166819 -43.778432 -2.929139 -0.171421 4.300333 -42.158701 15.825974 0.242346 55.381829 -8.819408 -19.916745 -7.049361 0.000000 0.000000 0.000000 -20.577692 5.244173 -38.156277 34.940228 -4.687984 57.030412 -36.297395 -51.681550 35.528002 0.000000 0.000000 0.000000 10.955660 1.995523 41.975930 -3.399911 0.794089 -28.522457 -3.343067 -12.910138 22.875945 -5.609445 0.098050 -38.453019 0.000000 0.000000 0.000000 -25.813499 -5.115424 12.792555 -61.934863 -44.316500 15.235729 145.998306 -41.783579 -69.104611 0.000000 0.000000 0.000000 0.113595 8.424083 1.442447 67.159144 41.832035 8.821495 -156.489843 41.925149 -134.491654 0.000000 0.000000 0.000000 
0.401678 0.792733 -0.586816 9.966708 -44.853145 -2.603920 -0.608075 4.726060 -43.415881 15.198168 0.592706 54.672965 -8.190830 -17.729241 -5.994839 0.000000 0.000000 0.000000 -20.558374 5.713882 -39.580398 35.968832 -5.019564 58.078298 -35.377270 -53.859684 29.075382 0.000000 0.000000 0.000000 11.776332 2.202039 43.470199 -2.357561 0.698526 -30.243041 -4.279713 -13.377897 24.691857 -7.219285 0.756517 -40.771139 0.000000 0.000000 0.000000 -25.853807 -2.831691 11.711715 -64.302790 -43.490957 15.522090 145.239203 -42.719973 -67.577374 0.000000 0.000000 0.000000 0.274840 8.149392 1.177333 68.520289 42.496852 9.148240 -154.272218 42.547410 -131.061887 0.000000 0.000000 0.000000 
0.419167 0.797410 -0.588897 10.352401 -46.374247 -2.126611 -1.763649 5.341724 -46.110095 16.012567 0.219375 55.948784 -10.027332 -18.648892 -1.243353 0.000000 0.000000 0.000000 -21.945238 6.078733 -40.876693 36.299028 -4.909327 57.193583 -31.084413 -52.774572 22.324026 0.000000 0.000000 0.000000 11.902475 2.551211 44.114312 -1.228337 0.569097 -31.119358 -4.837160 -13.776384 24.635677 -5.242100 -0.151677 -41.495153 0.000000 0.000000 0.000000 -24.233346 -1.167017 10.311727 -65.960635 -43.091795 16.646485 144.680504 -41.943444 -64.371738 0.000000 0.000000 0.000000 -0.844231 6.966136 1.228916 70.360084 42.687807 8.815790 -155.778483 43.104326 -134.754841 0.000000 0.000000 0.000000 
0.436952 0.799837 -0.589864 11.514957 -49.070458 -2.514483 -2.505947 6.581459 -48.685572 17.012327 0.002601 57.312621 -14.824559 -22.320343 5.673068 0.000000 0.000000 0.000000 -23.437122 6.604498 -41.844104 36.526323 -4.270148 56.225513 -26.706305 -52.104544 13.569710 0.000000 0.000000 0.000000 11.248776 3.284602 44.050704 0.107760 0.377021 -31.302866 -4.806512 -14.336990 24.317624 -7.558835 0.691914 -42.702569 0.000000 0.000000 0.000000 -23.654889 0.495755 9.600537 -64.597718 -42.921472 16.156359 144.386190 -40.912994 -61.277122 0.000000 0.000000 0.000000 -1.851834 6.134311 1.319711 69.878944 42.151928 7.594470 -155.744379 42.399339 -134.719359 0.000000 0.000000 0.000000 
0.456047 0.801370 -0.589302 12.114770 -52.954908 -2.843527 -1.110446 8.727243 -49.376905 17.592046 0.451312 57.981895 -12.851896 -21.949339 0.172258 0.000000 0.000000 0.000000 -24.399241 7.607519 -44.061975 36.706340 -3.612942 56.426239 -23.383793 -49.744444 9.624870 0.000000 0.000000 0.000000 12.848998 3.941120 45.899397 0.713390 0.447610 -32.317157 -6.805966 -16.980931 24.762575 -6.392591 -0.032968 -45.102303 0.000000 0.000000 0.000000 -21.391257 2.936791 7.992258 -62.645378 -44.723275 17.567550 144.352993 -39.900910 -57.927229 0.000000 0.000000 0.000000 -1.940188 5.356759 0.856120 69.979993 42.203263 6.747459 -158.492348 42.844067 -142.854074 0.000000 0.000000 0.000000 
0.476566 0.800266 -0.586772 12.294412 -56.214151 -2.791982 -0.800151 9.845230 -49.239111 21.107949 -0.935876 56.900912 -13.536019 -23.087048 -0.883376 0.000000 0.000000 0.000000 -25.392778 8.523867 -45.881682 37.296126 -3.102189 54.480221 -24.671741 -51.971948 10.096688 0.000000 0.000000 0.000000 15.375447 4.334719 48.045932 1.286683 0.570901 -33.536683 -7.961370 -19.422825 25.951142 -5.816515 -0.046576 -48.710983 0.000000 0.000000 0.000000 -20.709992 3.330736 8.263286 -57.551717 -47.019539 16.797526 141.281890 -37.798030 -49.654783 0.000000 0.000000 0.000000 -2.117130 6.037474 0.869202 66.215584 43.454019 6.232544 -160.105279 42.032822 -146.972445 0.000000 0.000000 0.000000 
0.496663 0.798524 -0.581516 12.367566 -59.708927 -2.487548 -1.704972 9.846946 -48.272962 23.708195 -1.335469 55.840883 -12.783541 -22.410940 -2.600132 0.000000 0.000000 0.000000 -26.984969 9.394204 -47.542115 39.372515 -3.170082 52.073698 -25.268965 -53.981545 8.508580 0.000000 0.000000 0.000000 18.959010 4.423659 49.999388 -0.683273 1.131525 -35.166240 -8.878726 -23.323329 28.600575 -3.212219 -0.874076 -51.270885 0.000000 0.000000 0.000000 -16.384615 3.387531 7.191991 -58.052920 -48.620146 20.207467 138.501213 -34.357589 -38.406269 0.000000 0.000000 0.000000 -2.240994 4.636332 0.033613 64.923608 45.713061 6.023652 -160.204433 41.815591 -147.079237 0.000000 0.000000 0.000000 
